/* XPM */
static char *doom3[] = {
/* columns rows colors chars-per-pixel */
"48 48 257 2",
"   c #000000",
".  c #0B0000",
"X  c #130100",
"o  c #1B0200",
"O  c #1C0904",
"+  c #230300",
"@  c #240902",
"#  c #2B0400",
"$  c #2B0A02",
"%  c #291307",
"&  c #330400",
"*  c #330A02",
"=  c #3C0501",
"-  c #3B0A02",
";  c #341006",
":  c #381508",
">  c #420300",
",  c #430B02",
"<  c #4B0100",
"1  c #4C0C01",
"2  c #431304",
"3  c #4B1103",
"4  c #491208",
"5  c #491807",
"6  c #520200",
"7  c #520D01",
"8  c #5A0D01",
"9  c #531203",
"0  c #531C0A",
"q  c #5B1202",
"w  c #5C1408",
"e  c #5B1A04",
"r  c #571008",
"t  c #49210E",
"y  c #54230E",
"u  c #5D260F",
"i  c #4C2E14",
"p  c #660000",
"a  c #620E01",
"s  c #690E02",
"d  c #6C0704",
"f  c #631302",
"g  c #631A04",
"h  c #611C09",
"j  c #6B1402",
"k  c #6C1903",
"l  c #6F1F08",
"z  c #720000",
"x  c #721402",
"c  c #731A03",
"v  c #721C09",
"b  c #791401",
"n  c #7B1C03",
"m  c #7A1D09",
"M  c #6B230E",
"N  c #61220D",
"B  c #652710",
"V  c #652B10",
"C  c #742105",
"Z  c #74220B",
"A  c #7C2204",
"S  c #7E270D",
"D  c #7C2B11",
"F  c #7E3315",
"G  c #773316",
"H  c #810000",
"J  c #800F08",
"K  c #880000",
"L  c #821C03",
"P  c #831F08",
"I  c #8A1B04",
"U  c #881705",
"Y  c #990000",
"T  c #931C03",
"R  c #9C1E04",
"E  c #981E0A",
"W  c #832204",
"Q  c #842209",
"!  c #822A0C",
"~  c #8C2304",
"^  c #8A240A",
"/  c #8A2A06",
"(  c #8B2B0D",
")  c #842C11",
"_  c #8C2B11",
"`  c #8B3315",
"'  c #8B3A19",
"]  c #932204",
"[  c #94260A",
"{  c #922905",
"}  c #942B0D",
"|  c #9C2304",
" . c #9C240A",
".. c #9B2A04",
"X. c #9A2C0E",
"o. c #942B11",
"O. c #9A2D12",
"+. c #9C320C",
"@. c #993309",
"#. c #933112",
"$. c #9C3213",
"%. c #9B3C1A",
"&. c #983C1A",
"*. c #81310A",
"=. c #A30000",
"-. c #AB1800",
";. c #A32509",
":. c #A32B0A",
">. c #AB2C0B",
",. c #A72806",
"<. c #A22C13",
"1. c #AA2C14",
"2. c #A43005",
"3. c #A3320A",
"4. c #AA3406",
"5. c #AB3309",
"6. c #A63B0B",
"7. c #A33513",
"8. c #A43913",
"9. c #A43B19",
"0. c #AB3313",
"q. c #AC3A14",
"w. c #AB3A1A",
"e. c #B02B08",
"r. c #B02E12",
"t. c #B13404",
"y. c #B33109",
"u. c #B43B0B",
"i. c #BA3A0C",
"p. c #B83707",
"a. c #B53813",
"s. c #AE3E20",
"d. c #B73E20",
"f. c #9D411C",
"g. c #93411A",
"h. c #8C421E",
"j. c #9B4B23",
"k. c #9B4521",
"l. c #A6431A",
"z. c #B3420C",
"x. c #B54A0C",
"c. c #B9400A",
"v. c #BD4A0D",
"b. c #B2431C",
"n. c #BA431A",
"m. c #BB4A1D",
"M. c #B74614",
"N. c #B95214",
"B. c #A54521",
"V. c #A34A23",
"C. c #AB4620",
"Z. c #AA4C25",
"A. c #A75128",
"S. c #AA5126",
"D. c #AB5229",
"F. c #A15027",
"G. c #B74621",
"H. c #B34C24",
"J. c #BB4B22",
"K. c #BA4725",
"L. c #B65026",
"P. c #B2542A",
"I. c #B45A2B",
"U. c #B95326",
"Y. c #BC5329",
"T. c #BB5A2B",
"R. c #BF5A24",
"E. c #BC5D32",
"W. c #B35D30",
"Q. c #BB6232",
"!. c #CC0000",
"~. c #CF0E04",
"^. c #D50000",
"/. c #D31913",
"(. c #C23C0D",
"). c #C53A15",
"_. c #D52A0C",
"`. c #C4460C",
"'. c #C24412",
"]. c #C44A1D",
"[. c #C7451A",
"{. c #C3500F",
"}. c #C85619",
"|. c #D04B1A",
" X c #D45318",
".X c #C34D22",
"XX c #C94923",
"oX c #C45224",
"OX c #C45B2C",
"+X c #CB5223",
"@X c #CC5C26",
"#X c #CC5B2A",
"$X c #C65727",
"%X c #C95A32",
"&X c #D35625",
"*X c #D25825",
"=X c #D35D2A",
"-X c #DA5F29",
";X c #D05734",
":X c #D54C24",
">X c #C96716",
",X c #CC622E",
"<X c #C0622F",
"1X c #C46332",
"2X c #C56B39",
"3X c #CB6434",
"4X c #CD6934",
"5X c #CB6B3A",
"6X c #CD723A",
"7X c #C3703B",
"8X c #D3632C",
"9X c #DC642D",
"0X c #D16626",
"qX c #D26631",
"wX c #D36A34",
"eX c #D36C39",
"rX c #DA6B33",
"tX c #DD6D39",
"yX c #D86438",
"uX c #D5733A",
"iX c #DB733B",
"pX c #DA7B3D",
"aX c #D67638",
"sX c #CC7D28",
"dX c #E26C35",
"fX c #E27B3C",
"gX c #E37538",
"hX c #E36D2D",
"jX c #DD6A42",
"kX c #D37941",
"lX c #DC7B43",
"zX c #D67441",
"xX c #E36A43",
"cX c #E57845",
"vX c #E0863A",
"bX c #DF8044",
"nX c #D38045",
"mX c #E28244",
"MX c #E48D4B",
"NX c #EA8D4C",
"BX c #E68747",
"VX c #EB8D52",
"CX c #EB9353",
"ZX c #EC955A",
"AX c #ED9B5F",
"SX c #F19B5D",
"DX c #F09657",
"FX c #EC994E",
"GX c #F19862",
"HX c #EDA158",
"JX c #F2A567",
"KX c #F5AB73",
"LX c #F6B977",
"PX c #EBA861",
"IX c #F7BD83",
"UX c #F7C683",
"YX c None",
/* pixels */
"YXYXYXYXYXYXYXYXYXYXYXYX!.!.!.~.> + + # * 9 j k f a 1 - & & H =.!.!.YXYXYXYXYXYXYXYXYXYXYXYXYXYX",
"YXYXYXYXYXYXYXYXYXYX!.!./.r $ - 0 ` %.L.%X2XVXZXzX3XoXJ.a.} 7 - , J =.!.YXYXYXYXYXYXYXYXYXYXYXYX",
"YXYXYXYXYXYXYXYX!.!./.w : i g.I.W.P.H.9.o.} 0.( O.7.K.#XwX4X;Xm.^ 5 2 d Y !.YXYXYXYXYXYXYXYXYXYX",
"YXYXYXYXYXYXYX!.^.).5 V I.6X6XT.#.0 4 . .   X     . , q ! b.8XiXfX=X$.g w H !.YXYXYXYXYXYXYXYXYX",
"YXYXYXYXYXYX!._.q M R.pXMXrXn.^ v @                 +     > n q.aXFXBX*Xv , 6 K YXYXYXYXYXYXYXYX",
"YXYXYXYXYX!.!.1 ! 4XCX4X8.: o o $ e C 2 @ O . o     O - X . & b u.m.vXDX9XQ = = 6 YXYXYXYXYXYXYX",
"YXYXYXYX!.!., } mXaXJXCXt - o .   $ N.2., . -     o + q q f 1 , L / PXUXVX=XQ = # & YXYXYXYXYXYX",
"YXYXYX!.!.> ^ I.3X+XbXLXMXV $ + 3 g 9 + 2.-   .   . .   . 1 n W b.HXLXAX&XrXoX] + # & YXYXYXYXYX",
"YXYX!.!.> j U.F.$.W $XCXNXMXl./ f A e # { ~ .   X +   - + . % m.SXFXNXI.* l.8XJ.a o # p YXYXYXYX",
"YXYX!.!.= oXS.$.O n ( nXgX9XBXaXq.c.{ { $ ..3   7 c X 8 # % <XmX8XhXCX` + = M.,X].8 + & YXYXYXYX",
"YX!.!.+ ].qX%.*   g : Q.fX|.a.fXmX'.:.1 n ~ n . * n $ + Q tXaX8.a.}.MX:.n N.] 0XBX X= + > YXYXYX",
"YX!.> - 8Xb.:   X # k f.iXc | i.8XpX( n 4.{ ] k - o k +.mXoXW L f #XI.] c./ + 1 vX=Xx X +   YXYX",
"!.!.+ 9.qX}     o g 4.% 7X~ e.~ ,.:.L.qXU 1 i.Q   @ oXgXb.c ~ {.v.pX@XL 2...* o 3.wXn.# o X YXYX",
"!.< w wX.X, o . - + * 3 D.q.b q n L ;.G.gXP b 7 I ,Xl.n j e 4.i.'.Q.n # . C p.x., oXOXP X o   YX",
"!.= ) Y.0.X - g .     - ` OX# 7 , = b x 0.3X:XP %X%.# ] @ c / - +Xh.- 9     g ..o l eXq.+ X o YX",
"!.& H.C.~ S W n # . . O O zXL & 7 L ~ 1 U XXcXjXE e.W n W k   C 1Xt   2 X   o 3 1 . oX+Xq X X YX",
"= 0 P.Z - / X O @ .   X X D.[.:.n ~ T 7 j jXG.o.tX1.7 b u.@.f :.A.k . 3 e * $ k / $ 8.4X~ X X   ",
"& $.D.w . k *       2 3 . B H.# L , U ) 2X|.s s 0.3XJ.e.I 4.# l.G o e 9 # . - n c $ $ %X7.+ . o ",
"= 9.V.: . 3 /   2 $ O  .j O 5X& s j ,XZ.)...8 8 ;.,.k.iX7.= o Y.: A 4.@ * 3 = $ 7 9 3 ,XJ.= X . ",
"= Z.#.X   * ~ k j n X . 1 o Y.E ).OX&.L ] = , 1 1 f , _ eX+XI L.j , X X j - . X A - + m.OX1 . . ",
", E.^ #   , 8 c W q .   # < O.xX%XO.] I c v # # n k & * ;.%XjXw.+ , v - X - . X 4.f X } 3X8 . . ",
"q 5X^ X o 8 # X q ~ ~ f = [.;XjXE e.:.8 / ~ , * Q A - j n >.;X;XP & j f * q X 9 t.$ X | VXT . . ",
"v VXo.  1 q + + . , f ;.-XcX1.yX[ 1 o 1 { ~ 1 # / { $ + 9 f yX<.iX#X, = k g g W I , f >.VXR . . ",
"v SXw.X . 1 # # . . 1 8XT.4 & $.` & 1 +.g = q j * 5 l.3 - B K.E , S.aXC + W 3.f n q f >.lXx . . ",
"f zXo.X X = 1 # + } pXK.X x y.>.S.= x q A # L 2.$ c 7 { 1 A.a.'.p.s +XgX].(.f o j 7 + a.zXs . . ",
"7 2X%.O X q * 9 wXS.! k > n { j dX} f { g f N.>Xj N 6.c n mXP ] n 8 L X.I.Y.m q L ~ a 0.eX8 . . ",
"4 E.J.- o q 8.pXT.h L W q 2 7 o +X.X& L u.~ N.x...u..., %.rX+ b f c ..n w j.6Xq.] , x XX%X7 .   ",
"3 Y.4Xw * 4XPXG.j , = 4.~ & o = ;.iX1 s { {.6...x.{ n 7 eXa.U W n c.i.a q L b.NXfX;.J rX$X, .   ",
"4 oXlXOXCXZX].>.P ] I 7 U E x a X oX).T | y.~ W :.d b ).3X# ;.e.5.i.R y.;.I y.&XNXSXdXcXn.$   . ",
", 8.ZXLXKXCXBXCXlXeX3X4XOXT.J.H.w.;XcXK.yXwXB.B.iXgXXXcXxXd.b.*X#X+XK.OXqXtXgXlXgXGXIXZX3.o .   ",
"U h cXBXl.` 9.@XV u u M Z y 0 y <.XXxXm o.q.q.m.XXO.m xXw.M D +X*Xm.D G F ' k.B.B.P.VXcXl .     ",
"-.4 qXmX#.@ 1 u.n q + X - 9 1 1 b J xXr.(.i.(.'. X X).cX+ X X = E - $ f X . * $ @ Z mXY.: . .   ",
"!.4 ) mX,X- o L W c x ..- o # * - x -XrX X6.*.@.c.'.gXgXb . X o >   + I o @ & . o U.uX( . .   YX",
"!.J 2 @XeX` X n ..p.~ k 8 c k * X , :.NX`.c + , 1 T fX].] + .           . - . . 5 4Xl.: .     YX",
"YX=.- v qXoXq s A { f 1 q t.A c 1 L ,.lX|.| 8 c , }.I.8 = W 1         . @     . H.F.g X       YX",
"YX!.d $ q.,X8Xj q , + A z.>X`.1 k { b ' +X'.g ..i.$X&.8 f W n o     o P       S P.S @   .   YXYX",
"YXYXY 1 = -XpXn., o # ,.{.sXv., A 9 q y 5X{ M.n ~ aX} o { - k o 7 X 1 ,     0 wX` , . .     YXYX",
"YXYX!.z + 7 .X$X5.1 A A { N.5 - * * q $ 7XX.c $ 8.4X:.g X   f . 9 g r -   % qXrX, .       YXYXYX",
"YXYXYX!.< o 1 9.k.O.X $ t.t.~ W q g 2 O j.U.f 9 @Xj.q n 2   n k *   # 7 v Y.%.w .       YXYXYXYX",
"YXYXYXYXp = X 4 %.U.` + 3.2.$ @ g k Q $ i 6XC [ Q.! , - j @./ o       D P.k.f . .       YXYXYXYX",
"YXYXYXYXYX6 # o c 9.V.9.v c - . $ e W o % nXn.[.zXP # X   g 4     $ H.V.F 1 X .       YXYXYXYXYX",
"YXYXYXYXYXYX6 # o + ( V.P.&Xw # @ e x 9 Q Q.yXcXtX- q o X j . $ f.1XV.S * X         YXYXYXYXYXYX",
"YXYXYXYXYXYXYX& # + o 1 .XNXP.C.! * w b A ` ZXGXo.# , L | X.C.mXuX) q o   .       YXYXYXYXYXYXYX",
"YXYXYXYXYXYXYXYXp # + X + v D j.Q.Q.1X4X+X].KXKX[.0.XXuX3XE.j.a.} + . .         YXYXYXYXYXYXYXYX",
"YXYXYXYXYXYXYXYXYXYX+ + o X X - w ' D.2XkXAXIXJXGXcXyXK.o.v 7 o . . .       YXYXYXYXYXYXYXYXYXYX",
"YXYXYXYXYXYXYXYXYXYXYX  X o X X X O : 0 w :.).,.R x q , O . .             YXYXYXYXYXYXYXYXYXYXYX",
"YXYXYXYXYXYXYXYXYXYXYXYXYX  o X X X X X X X . . . .   . . . .         YXYXYXYXYXYXYXYXYXYXYXYXYX",
"YXYXYXYXYXYXYXYXYXYXYXYXYXYXYXYX  X .   . . .   . . .           YXYXYXYXYXYXYXYXYXYXYXYXYXYXYXYX"
};
