/* XPM */
static char * doom3xp_xpm[] = {
"48 48 297 2",
"  	c None",
". 	c #A54821",
"+ 	c #CE602C",
"@ 	c #D45D29",
"# 	c #B6552B",
"$ 	c #550B01",
"% 	c #6E1C1B",
"& 	c #6B0F0A",
"* 	c #7C1305",
"= 	c #831D06",
"- 	c #761A15",
"; 	c #651412",
"> 	c #5E0B08",
", 	c #640905",
"' 	c #6A0702",
") 	c #6A0D05",
"! 	c #6B140F",
"~ 	c #D56B35",
"{ 	c #5C2E21",
"] 	c #5B4130",
"^ 	c #94664E",
"/ 	c #73331B",
"( 	c #932B0B",
"_ 	c #B1431E",
": 	c #BA4D24",
"< 	c #A73818",
"[ 	c #9F3113",
"} 	c #62100A",
"| 	c #7B220E",
"1 	c #8D3014",
"2 	c #A4401D",
"3 	c #C86636",
"4 	c #E5864A",
"5 	c #EC9255",
"6 	c #C05F31",
"7 	c #982A10",
"8 	c #380803",
"9 	c #C86B38",
"0 	c #4C3933",
"a 	c #543C30",
"b 	c #7C6555",
"c 	c #8B230B",
"d 	c #B54922",
"e 	c #C55529",
"f 	c #542314",
"g 	c #4F2D1C",
"h 	c #671814",
"i 	c #832C0D",
"j 	c #AC5028",
"k 	c #9E3A18",
"l 	c #A02C14",
"m 	c #B94816",
"n 	c #77160C",
"o 	c #4C1307",
"p 	c #39140B",
"q 	c #4C3324",
"r 	c #54392B",
"s 	c #913A1B",
"t 	c #D86F39",
"u 	c #230E09",
"v 	c #382822",
"w 	c #6C1913",
"x 	c #983E1E",
"y 	c #C36433",
"z 	c #943212",
"A 	c #37221A",
"B 	c #684D3D",
"C 	c #93755B",
"D 	c #8D6B55",
"E 	c #49241B",
"F 	c #D8753C",
"G 	c #CC6A37",
"H 	c #801A0C",
"I 	c #621A08",
"J 	c #2E261E",
"K 	c #73594B",
"L 	c #492912",
"M 	c #5F4A3B",
"N 	c #624535",
"O 	c #9C6F55",
"P 	c #A47A5D",
"Q 	c #89624B",
"R 	c #D06E39",
"S 	c #A43616",
"T 	c #6A422D",
"U 	c #4C3529",
"V 	c #8B351A",
"W 	c #791F18",
"X 	c #453125",
"Y 	c #684435",
"Z 	c #8A725B",
"` 	c #927B64",
" .	c #9B8B74",
"..	c #AB9379",
"+.	c #8B7563",
"@.	c #53352A",
"#.	c #41241C",
"$.	c #79180D",
"%.	c #3D2B1E",
"&.	c #190402",
"*.	c #7D1F04",
"=.	c #F2AC6E",
"-.	c #3E1C15",
";.	c #533827",
">.	c #817465",
",.	c #93826E",
"'.	c #C3AC8F",
").	c #DBC3A1",
"!.	c #B0A089",
"~.	c #8D7E65",
"{.	c #705542",
"].	c #523424",
"^.	c #6C240D",
"/.	c #55463C",
"(.	c #774835",
"_.	c #4E3B2F",
":.	c #7F715F",
"<.	c #E1E3CD",
"[.	c #79695C",
"}.	c #544133",
"|.	c #49382E",
"1.	c #AA3C1A",
"2.	c #000000",
"3.	c #5B4B40",
"4.	c #453930",
"5.	c #695A4B",
"6.	c #756354",
"7.	c #756051",
"8.	c #380A03",
"9.	c #3C2D24",
"0.	c #612216",
"a.	c #594538",
"b.	c #524136",
"c.	c #6D655B",
"d.	c #645E56",
"e.	c #280802",
"f.	c #AB3317",
"g.	c #612407",
"h.	c #422D23",
"i.	c #060100",
"j.	c #5C1505",
"k.	c #6D5A46",
"l.	c #5E4535",
"m.	c #5C5145",
"n.	c #8C816B",
"o.	c #726E68",
"p.	c #604F41",
"q.	c #68533C",
"r.	c #AD3814",
"s.	c #3F0701",
"t.	c #79634F",
"u.	c #4D3F35",
"v.	c #635649",
"w.	c #9A927D",
"x.	c #A29B8B",
"y.	c #B1AE9B",
"z.	c #BEBFAA",
"A.	c #D1D0BA",
"B.	c #8B8376",
"C.	c #52493F",
"D.	c #574E45",
"E.	c #604B34",
"F.	c #460E03",
"G.	c #E0863A",
"H.	c #3D261E",
"I.	c #0A0202",
"J.	c #44291F",
"K.	c #473B35",
"L.	c #F4F9EF",
"M.	c #382E28",
"N.	c #4D2D21",
"O.	c #A83308",
"P.	c #310801",
"Q.	c #630D09",
"R.	c #23100F",
"S.	c #32251E",
"T.	c #653B2B",
"U.	c #3E3734",
"V.	c #847B6C",
"W.	c #4B433D",
"X.	c #73523B",
"Y.	c #655343",
"Z.	c #421611",
"`.	c #750B03",
" +	c #35251B",
".+	c #2F2923",
"++	c #2B251F",
"@+	c #453F3D",
"#+	c #352F2D",
"$+	c #60372A",
"%+	c #32221A",
"&+	c #753D29",
"*+	c #260501",
"=+	c #9A5239",
"-+	c #36251F",
";+	c #4A4747",
">+	c #29221E",
",+	c #6E6051",
"'+	c #3C332B",
")+	c #2E221D",
"!+	c #34221C",
"~+	c #875B42",
"{+	c #251E1B",
"]+	c #2E1A15",
"^+	c #2B1D18",
"/+	c #7B6953",
"(+	c #231512",
"_+	c #2C201B",
":+	c #795A45",
"<+	c #593B2B",
"[+	c #120100",
"}+	c #2E1E19",
"|+	c #31221C",
"1+	c #5C3926",
"2+	c #200501",
"3+	c #351C15",
"4+	c #603F35",
"5+	c #342C25",
"6+	c #AF5736",
"7+	c #693124",
"8+	c #331E19",
"9+	c #B0815D",
"0+	c #736757",
"a+	c #45342B",
"b+	c #0E0000",
"c+	c #AD6F52",
"d+	c #953B25",
"e+	c #0B0000",
"f+	c #1C1513",
"g+	c #1F1311",
"h+	c #271411",
"i+	c #321512",
"j+	c #752E23",
"k+	c #581B13",
"l+	c #3E1D18",
"m+	c #2B1612",
"n+	c #211715",
"o+	c #35291F",
"p+	c #4B1913",
"q+	c #6D2516",
"r+	c #0A0000",
"s+	c #4A160B",
"t+	c #A96244",
"u+	c #471207",
"v+	c #DF996A",
"w+	c #2C2315",
"x+	c #E27949",
"y+	c #2C0A02",
"z+	c #2C261B",
"A+	c #160501",
"B+	c #212315",
"C+	c #2A2A1E",
"D+	c #1D1A17",
"E+	c #0E0201",
"F+	c #441508",
"G+	c #B7370A",
"H+	c #422017",
"I+	c #130D0A",
"J+	c #1E1E1A",
"K+	c #A93C26",
"L+	c #271B17",
"M+	c #351005",
"N+	c #731B04",
"O+	c #701403",
"P+	c #120402",
"Q+	c #431306",
"R+	c #350F05",
"S+	c #090101",
"T+	c #651803",
"U+	c #AF4D34",
"V+	c #96401F",
"W+	c #0E0301",
"X+	c #2D0702",
"Y+	c #78190B",
"Z+	c #210901",
"`+	c #080000",
" @	c #E17D3D",
".@	c #C3510F",
"+@	c #6A481F",
"@@	c #0C0100",
"#@	c #B12D08",
"$@	c #090000",
"%@	c #0F0100",
"&@	c #060000",
"*@	c #261714",
"=@	c #130300",
"-@	c #0E0100",
";@	c #160201",
">@	c #150500",
",@	c #200701",
"'@	c #200601",
")@	c #140301",
"!@	c #190400",
"~@	c #070000",
"{@	c #100100",
"]@	c #1F0803",
"^@	c #120202",
"          . . + @ # $ % % & * = * - % ; > , ' ' ) & ! %                                         ",
"      ~ . { ] ^ / - ( _ : < [ ; } | 1 2 # 3 4 5 ~ 6 _ < 7 * ! 8                                 ",
"    9 5 0 a b c d 3 e f g h i . j j d k 7 7 l 7 [ [ m + ~ 3 : [ n o                             ",
"  9 p q r s : t k u v w x y 3 e z f g A B C C C C D ] E / k + F G _ H I                         ",
"  e J K s y F 5 L - k y 5 ~ m | g M q N ^ O O P O O Q r a M f k ~ 5 R S -                       ",
". T U V . [ c T W _ 4 ~ k p u v U X Y C Z `  ... .+.C D @.q X #.( e 4 4 d $.                    ",
"s b %._ j &.*.| 6 F =.5 L -.U U ;.;.b >.>.,.'.).!.~.>.>.{.].;.U q ^.=.=.4 _ $.                  ",
"+ /.7 # p &.W 2 + e 4 =.(.0 _.a a M :.b Z !.<.<.)...:.b [.}.}._._.|.O =.@ ~ 1.H                 ",
". / _ ( 2.W 2 . [ c e T }.}._.3.4.5.6.7.` ..).).)...Z 7.[.3.0 3.U /._./ 8.1.+ S &               ",
"y - e 9.% < j [ &.*.0.] a.U b.3./.c.b [.` !.'.'.'...Z [.[.d.a.3._.}.M ;.e.8.m + f.!             ",
"g.c . h.l e k e.i.j.q k.l.r m.B m.>.,.,...'.!.!.!.'. .,.n.o.p.B 3.;.M q.L m c @ F r.s.          ",
"% _ f ; : d p 2.&.A q.t.r 4.m.u.v.w.x.!...y.z.A.z.!...!.w.B.C.a.D.v N 7.E.^.e.F.G.: &           ",
"% d H.( ~ c 2.I.J.q.M {.H.K.3.K.d.x.y.!.w.z.<.L.A.y.w.y.y.B.D.u.C.M.N.K a.q.-.&.O.~ 7 P.        ",
"Q.[ ! e d F.R.S.B b.K T.#.U.K.U.c.B.x.w.V.y.L.L.<.x.V.x.x.V.d.M.W.M.E X.Y.a.}.g Z.e : `.        ",
"* ( | d 1.9.H. +a./.7.{ J.U.U..+d.V.V.:.n.z.L.L.L.y.>.:.B.o.m.++@+#+N.$+6.b.U %+H.&+~ ( *+      ",
"c ; 2 . =+h.].q b./.K $+-+;+U.>+4.,+6.m.>.z.A.<.A.y.6.m.b v.'+)+@+U.h.$+7.u.|.].N.u.3 _ &       ",
"& } j | 0 !+T U p.a.~+@.{+o.d.]+^+v.,+a l.,.z.A.y./+] a.K /.(+%+o.;+_+Y :+M b.<+<+v (.3 * [+    ",
"- c # f _.@.T.J. .t.l.)+.+;+/.}+|+3.,+7.k.:.z.<.!./+k.b ,+b.]+-+m.@+>+9.l.~./+N.1+<+X 6 c 2+    ",
"% z . H.l.X.]. +x.n.-+'+W.4.9.3+-+4+:.w.V.V.y.A.x.:.B. .6.r %+A '+W.W.5+X !.:.3+T.X.}.6+< Q.    ",
"; x z C.Z C r %.w.K ^+c.d.5+'+a |.7+K n.B.y.<.<.<.x.n.V.Y $+4.r 5+4.o.m.}+~.>.^+q.C /+=+: ,     ",
"Q.# c c.~.D Q h.,.{.}+C.W.#+.+u.'+` K Y.y.<.L.L.<.<.B.m.D b '+u.>+K.C.0 8+Z 6.q ^ C ~.(.6 ,     ",
", 3 c C.,+C 9+X.,+:+J.u./.M.5+4.4.:.{.3.B.A.).).).z.0+3.:+c.a+'+5+'+m.'+]./+p.Q 9+Z 5.&+4 `.b+  ",
"' 4 7 W.C.v.{.~+M ,+X.|.:.5+++.+5+|+N.a p.~+c+d+c+:+M r J.S.5+.+{+D.[.;.X.,+{.~+k.D.C.T 5 `.e+  ",
"' =.k 5+M.U.3.k.Y.p.7.+.u..+J f+g+h+g+i+E j+k+k+0.j+l+m+g+h+g+n+.+U.p.+.,+/.k.q./.'+5+{ F ' e+  ",
") t z f+f+f+o+a.Y.K.,+K )+M.f+i+0.k+i+i+p+0.j+6+0.0.Z.m+Z.k+k+R.{+5+9.7.5.K.Y.}._+f+f+f ~ ' e+  ",
"Q.6 k m+m+(+g+9./.K.u.T.#.b.i+k+0.p+Z.i+Z.T.{ 7+$+{ Z.i+p+p+q+Z.H.a+E N 4.W.b.S.g+h+m+0.6 , r+  ",
"; j d N.(.T ]+5+|.}.a+^ Y ,+(.k+0.k+q+% p+#.B K 4+-.k+q+0.k+k+k+Q /.~+:+a+b.|._+#.(.T d+: , r+  ",
"% 2 3 Y ] 1+3+^+9.A q r M 5.C 7+q+s+p+k+7+N }.K _.Y q+k+Z.k+q+&++.Y.N U N.%+9.(+#.1+l.t+1.Q.    ",
"u+S F ~ v+v+(.o+ +%.g J v _.7...Z 7.D c+t+T.U p }.&+c+O b 7.` ..Y.a+o+o+g %.w+U c+=.x+x+7 y+    ",
"  H 4 =.=.5 4 v+'+w+z+J J ^+k.~.0+v.5.b C P { 8.(.P Z b v.5.[.~.}.^+S.J z+w+:+F x+5 =.5 H A+    ",
"  ! 3 4 . V 1.+ ,+B+C+5+>+D+z+%+J.#.h.(.<+Q d+l d+t.$+Y H.J.H. +{+{+>+5+C+B+O . . # 5 3 & E+    ",
"  F+_ 4 z e.F.G+V H+u I+D+J+J+}+o+H.8+3+@.=+K+K+K+~+J.]+#.H.%.L+J+J+f+s+I+#+p e.e.^.4 S M+      ",
"    n G + 8.&.= = N+O+( {+D+D+J _+.+ +H+#.X.=+d+=+4+H+l+o+++)+++D+D+{+= &.e.8.I.&.d y n P+      ",
"    Q+1.F z &.*.( G+c 0.D.v g+@.^ h.!+A g v &+K+&+H.g 8+!+<+^ A L+M.D.I.I.8.i.I.s+3 ( R+S+      ",
"      & : e j., *.c T+F.{+3.b.]+E l.-+8+#.U (.U+Y X #.]+a+a E m+Y.K.f+i.e.2.2.I.d V+) W+        ",
"      X+c e @ O+j.F.e.*.i ++p.0 n+S.N h.A |.b P 5.h.8+U ] L+^+a./.D+&.= i.2.2.i . Y+Z+`+        ",
"        ; _  @m F.&.e.O..@+@n+-+}+_+a+a !+] 6.+.5.r 8+l.S.}+}+-+f+I+F.F.2.2.s+~ | Q.`+          ",
"          } f.e O.F.*.*.c m F.h+]+O v _+_+U {.Z M 9.)+L+B ~+g+I+F.T+> 8.2.e.~ : > @@            ",
"            } 1 . [ &.e.O.#@= ^.L+Y @.n+-+|+_.Y.X |+S.f+(.U 8+T+8.2.e.F.| # 1 Q.$@              ",
"              } 1 # z &.O.O.p &.]+L+-+n+-+%+|.Y.9.|+!+n+-+(+}+&.I.2.2.i # 1 ) %@&@              ",
"                n ( . < N+O+4+{+*@*@(+*@_+h.X ] h.9.L+*@(+*@(+#+J+e.d . | > =@&@                ",
"                  } Y+x # @ j.H.h+*@s+Z.]+X N.-.q %.]+m+(+*@u a+k 3 x N+> -@                    ",
"                    ;@} S F # . f ]+j.* f ^+g &+H.]+s+= c f / 4 6 | , >@`+                      ",
"                        ,@) Y+s # 6 3 3 d q+t+c+V q+# ~ 3 # s 7 * '@`+&@                        ",
"                            )@> Q.| x # 9 5 =.=.5 t e S H ) , !@~@`+                            ",
"                                {@]@Q.Q., * * `.`.) , Q.2+e+`+                                  ",
"                                          ^@@@@@@@r+r+                                          ",
"                                                                                                "};
